<svg width="50" height="30" viewBox="0 0 50 30" fill="none" xmlns="http://www.w3.org/2000/svg">
<path fill-rule="evenodd" clip-rule="evenodd" d="M48.823 2.08333C49.1938 0.908333 48.823 0.0541663 47.1824 0.0541663H41.7271C40.3511 0.0541663 39.7157 0.802083 39.3448 1.60208C39.3448 1.60208 36.5386 8.43542 32.6198 12.8656C31.349 14.1469 30.7667 14.574 30.0782 14.574C29.7073 14.574 29.2302 14.1469 29.2302 12.9729V2.02813C29.2302 0.640625 28.8073 0 27.6417 0H19.0625C18.2146 0 17.6854 0.640625 17.6854 1.28125C17.6854 2.61563 19.6448 2.93646 19.8563 6.67292V14.7917C19.8563 16.5531 19.5438 16.875 18.85 16.875C16.9969 16.875 12.4959 9.98854 9.79585 2.14167C9.27085 0.5875 8.73751 0 7.36043 0H1.85313C0.264584 0 0 0.746875 0 1.54792C0 2.98958 1.85313 10.249 8.63126 19.8573C13.1323 26.4198 19.5396 29.9469 25.3115 29.9469C28.8073 29.9469 29.2302 29.1458 29.2302 27.8115V22.8469C29.2302 21.2458 29.548 20.9792 30.6605 20.9792C31.4542 20.9792 32.8844 21.4052 36.1146 24.5552C39.8209 28.2917 40.4563 30 42.5219 30H47.9761C49.5647 30 50.3063 29.199 49.8824 27.651C49.4063 26.1031 47.6053 23.8615 45.2751 21.1927C44.0042 19.699 42.098 18.0437 41.5157 17.2427C40.7219 16.175 40.9334 15.7479 41.5157 14.7875C41.4626 14.7875 48.1355 5.28542 48.823 2.07917" fill="white"/>
</svg>
