<svg width="43" height="30" viewBox="0 0 43 30" fill="none" xmlns="http://www.w3.org/2000/svg">
<path d="M21.5 0C21.5 0 34.9364 0.000443092 38.2842 0.895508C40.1409 1.40355 41.607 2.85477 42.0957 4.69336C42.9997 8.03207 43 15 43 15C43 15.002 42.9995 21.9684 42.1201 25.3066C41.607 27.1692 40.166 28.6205 38.3096 29.1045C34.938 29.9997 21.5 30 21.5 30C21.4971 30 8.06322 29.9995 4.71582 29.1045C2.85909 28.5965 1.393 27.1452 0.904297 25.3066C0.000451772 21.9684 1.9314e-08 15.002 0 15C0 15 0.000337362 8.03207 0.879883 4.69336C1.39296 2.83076 2.83396 1.3795 4.69043 0.895508C8.06165 0.000443897 21.4971 1.06256e-08 21.5 0ZM17.1025 21.3389L28.3408 15L17.1025 8.66113V21.3389Z" fill="white"/>
</svg>
